<svg version="1" xmlns="http://www.w3.org/2000/svg" width="933.333" height="933.333" viewBox="0 0 700.000000 700.000000"><path d="M229.5 9.7c-2.7.7-5.5 3.3-6.6 6.2-1.3 3.4-1.3 82 0 85.3 3.1 8.2 16.1 7.9 19-.4.7-2 1.1-17 1.1-42.5 0-43.3-.2-44.8-5.9-47.7-3.1-1.6-4.1-1.7-7.6-.9zM304.6 9.7c-1.1.3-3.1 1.6-4.5 2.9l-2.6 2.4-.2 42.1c-.3 45.2-.2 46.3 4.8 49 5.3 2.8 12.7.3 14.8-4.9.8-2 1.1-15.1.9-44.5l-.3-41.7-2.5-2.5c-2.6-2.5-7-3.7-10.4-2.8zM379 9.9c-1.4.4-3.5 2.2-4.7 4-2.3 3.4-2.3 3.5-2.3 43.8 0 45 .1 45.7 6.4 48.7 5.1 2.4 10.5.4 13.4-5.1 1.5-2.8 1.7-81.9.2-85.7-1-2.7-6.5-6.7-9-6.5-.8.1-2.6.4-4 .8zM454.1 9.9c-1.3.3-3.4 1.9-4.5 3.4-2.1 2.8-2.1 3.8-2.1 45 0 40.6.1 42.3 2 44.9 2.6 3.5 6.5 4.9 10.6 3.8 4.5-1.3 6.8-3.7 7.5-7.9.9-4.7.9-76.5 0-81.2-1.1-6.1-7.3-9.8-13.5-8zM213.7 138.6c-.1.1-3.6.4-7.7.8-28.8 2.3-54.4 21.3-65.8 48.7-6.4 15.5-6.2 8.5-5.9 168.4.3 159.5-.2 146.5 6.4 162.2 9.6 22.7 30.5 40.2 55.2 46.3 7.3 1.8 14.1 1.8 154.1 1.7 137.7-.2 146.9-.3 152.5-2 26.9-8.1 47.2-27.1 55.5-52 1.6-4.5 3.2-10.7 3.6-13.7.4-3 .7-69.4.7-147.5 0-125.6-.2-142.8-1.6-149.1-7.3-33.3-33-57.4-67-63-3.2-.5-279.3-1.3-280-.8zM15.3 231.4c-4.2 1.4-6.4 4.1-7 8.5-.7 4.9 1.4 8.7 5.8 10.5 2.3 1 13.1 1.3 43.8 1.2 37.4-.1 40.9-.2 43.4-1.9 4.7-3.1 6.2-10.3 2.9-14.3-4-4.8-4.4-4.8-46.5-4.8-21.8-.1-40.9.3-42.4.8zM598.3 238.2c-9.5 2.5-10.4 14.7-1.3 19.3 1.9.9 12.5 1.2 43 1.1 38.5-.1 40.7-.2 43.8-2.1 6.8-4.1 6.1-13.7-1.3-17.8-2.3-1.3-79.4-1.8-84.2-.5zM15.1 306.5c-4.1 1.5-6 3.8-6.7 8.4-.8 4.8 1 8.2 5.6 10.6 2.5 1.3 8.9 1.5 43.4 1.5 40.2-.1 40.5-.1 43.8-2.3 4.6-3.1 5.9-8.5 3.3-13.4-1.1-1.9-3.1-4-4.5-4.5-3.4-1.4-81-1.6-84.9-.3zM599.1 313.1c-10.1 2.1-11.6 15.3-2.2 19.2 3.1 1.4 9.6 1.6 44.1 1.4 38.8-.2 40.6-.3 43.2-2.2 3.3-2.4 4.9-6.6 4.1-10.6-.6-3.1-5.4-7.8-8.1-8-7.1-.5-78.8-.3-81.1.2zM21 381.1c-8 .7-9.7 1.4-11.5 5-3.1 5.9-.8 12.3 5.3 14.8 2 .9 14.1 1.1 44.1.9l41.3-.3 2.9-3.3c4.7-5.3 3.1-13.6-3.2-16.3-3-1.2-66.8-1.9-78.9-.8zM597.7 388.5c-9.3 3.1-9.2 16.8.2 19.6 2.4.7 17.2.9 44.1.7l40.5-.3 2.3-2.3c3.1-3.1 4.3-6.6 3.5-10.2-.6-3.5-5.4-7.9-8.6-8.1-13.1-.7-79.7-.2-82 .6zM17.9 456.1c-9.5 1.5-13.1 10.3-7 17.1l2.9 3.3h86l2.6-2.4c5.7-5.3 3.9-14.9-3.2-17.2-3.7-1.2-74.6-1.9-81.3-.8zM600.6 463.2c-5.4.8-7.4 2.1-9.2 6.3-2.4 5.9 1.5 12.9 8 14 1.7.3 20.9.4 42.6.2 36.6-.2 39.7-.3 42.2-2.1 3-2 5-7.2 4.1-10.8-.9-3.5-4.3-6.7-7.7-7.3-4.5-.9-74.4-1.1-80-.3zM238 598.9c-1.4.4-3.5 2.2-4.7 4-2.3 3.4-2.3 3.5-2.3 43.7 0 24.5.4 41.3 1 42.9 3.1 8.2 13.9 9.3 18.3 1.7 1.8-3 1.9-5.7 1.9-43.5 0-23.4-.4-41.2-1-42.7-1.9-5-7.7-7.7-13.2-6.1zM312.5 599.4c-6.2 2.7-6 .9-6 47.5 0 41 .1 42.7 2 45.3 4.7 6.3 14.9 5.2 17.6-2 .9-2.3 1.2-25.9.9-76.9 0-7.6-.2-8.5-2.7-11.2-3.3-3.5-7.7-4.5-11.8-2.7zM386.2 600c-5 3.1-5.3 5.8-5 49.7.3 38 .4 39.9 2.3 42.5 4.6 6.3 14.8 5 17.8-2.2 1.2-3 1.7-78.9.5-83.6-1.8-6.8-9.6-10-15.6-6.4zM462.3 599.6c-6 3-6.1 3.6-5.9 49 .1 39.7.2 41.3 2.1 43.4 4.3 4.8 9.4 5.6 14.2 2.4 4.6-3 4.8-5 4.7-48.6v-40.9l-3-2.9c-3.6-3.7-7.9-4.5-12.1-2.4z"/></svg>